<svg width="1080" height="1080" viewBox="0 0 1080 1080" fill="none" xmlns="http://www.w3.org/2000/svg">
<rect width="1080" height="1080" fill="white"/>
<path opacity="0.1" d="M552.244 1080C694.409 1080 809.657 1045.44 809.657 1002.81C809.657 960.176 694.409 925.616 552.244 925.616C410.079 925.616 294.831 960.176 294.831 1002.81C294.831 1045.44 410.079 1080 552.244 1080Z" fill="#AEE5FE"/>
<path opacity="0.1" d="M552.244 1039.02C656.259 1039.02 740.58 1013.75 740.58 982.563C740.58 951.381 656.259 926.103 552.244 926.103C448.229 926.103 363.909 951.381 363.909 982.563C363.909 1013.75 448.229 1039.02 552.244 1039.02Z" fill="#AEE5FE"/>
<path opacity="0.1" d="M552.244 1020.82C630.129 1020.82 693.266 1001.88 693.266 978.52C693.266 955.161 630.129 936.225 552.244 936.225C474.36 936.225 411.222 955.161 411.222 978.52C411.222 1001.88 474.36 1020.82 552.244 1020.82Z" fill="#AEE5FE"/>
<path d="M919.796 612.172H159.916V629.004H919.796V612.172Z" fill="#224DC2"/>
<path d="M789.212 221.421H301.369C293.371 221.421 286.888 227.905 286.888 235.902V559.267C286.888 567.264 293.371 573.748 301.369 573.748H789.212C797.209 573.748 803.693 567.264 803.693 559.267V235.902C803.693 227.905 797.209 221.421 789.212 221.421Z" fill="#224DC2"/>
<path d="M789.24 221.421H301.369C297.58 221.466 293.959 222.991 291.28 225.67C288.601 228.349 287.076 231.97 287.031 235.759V537.79H803.721V235.902C803.714 232.064 802.186 228.385 799.472 225.671C796.758 222.957 793.079 221.429 789.24 221.421V221.421Z" fill="#226FCD"/>
<path d="M789.24 221.421H301.369C297.58 221.466 293.959 222.991 291.28 225.67C288.601 228.349 287.076 231.97 287.031 235.759V236.791C287.076 233.002 288.601 229.382 291.28 226.702C293.959 224.023 297.58 222.498 301.369 222.454H789.24C793.054 222.461 796.711 223.969 799.421 226.653C802.131 229.336 803.676 232.978 803.721 236.791V235.759C803.676 231.946 802.131 228.303 799.421 225.62C796.711 222.937 793.054 221.429 789.24 221.421V221.421Z" fill="#479EE8"/>
<path d="M783.62 243.616H306.989V525.717H783.62V243.616Z" fill="#161145"/>
<path d="M642.368 279.603H372.769C370.932 279.603 369.443 281.092 369.443 282.929C369.443 284.766 370.932 286.255 372.769 286.255H642.368C644.206 286.255 645.695 284.766 645.695 282.929C645.695 281.092 644.206 279.603 642.368 279.603Z" fill="#2C8FE8"/>
<path d="M498.622 257.322H326.918C324.558 257.322 322.645 259.235 322.645 261.595C322.645 263.954 324.558 265.867 326.918 265.867H498.622C500.982 265.867 502.894 263.954 502.894 261.595C502.894 259.235 500.982 257.322 498.622 257.322Z" fill="#AEE5FE"/>
<path d="M343.291 279.603H325.971C324.134 279.603 322.645 281.092 322.645 282.929C322.645 284.766 324.134 286.255 325.971 286.255H343.291C345.128 286.255 346.617 284.766 346.617 282.929C346.617 281.092 345.128 279.603 343.291 279.603Z" fill="#AEE5FE"/>
<path d="M466.335 300.392H327.521C326.38 300.392 325.456 301.316 325.456 302.456V302.485C325.456 303.625 326.38 304.55 327.521 304.55H466.335C467.475 304.55 468.4 303.625 468.4 302.485V302.456C468.4 301.316 467.475 300.392 466.335 300.392Z" fill="#0D6CC4"/>
<path d="M466.335 317.281H327.521C326.38 317.281 325.456 318.206 325.456 319.346V319.375C325.456 320.515 326.38 321.439 327.521 321.439H466.335C467.475 321.439 468.4 320.515 468.4 319.375V319.346C468.4 318.206 467.475 317.281 466.335 317.281Z" fill="#0D6CC4"/>
<path d="M466.335 334.142H327.521C326.38 334.142 325.456 335.066 325.456 336.207V336.235C325.456 337.376 326.38 338.3 327.521 338.3H466.335C467.475 338.3 468.4 337.376 468.4 336.235V336.207C468.4 335.066 467.475 334.142 466.335 334.142Z" fill="#0D6CC4"/>
<path d="M466.335 351.031H327.521C326.38 351.031 325.456 351.956 325.456 353.096V353.125C325.456 354.265 326.38 355.189 327.521 355.189H466.335C467.475 355.189 468.4 354.265 468.4 353.125V353.096C468.4 351.956 467.475 351.031 466.335 351.031Z" fill="#0D6CC4"/>
<path d="M348.711 367.921H327.521C326.38 367.921 325.456 368.845 325.456 369.985V370.014C325.456 371.154 326.38 372.078 327.521 372.078H348.711C349.851 372.078 350.776 371.154 350.776 370.014V369.985C350.776 368.845 349.851 367.921 348.711 367.921Z" fill="#0D6CC4"/>
<path d="M385.673 367.921H364.482C363.342 367.921 362.417 368.845 362.417 369.985V370.014C362.417 371.154 363.342 372.078 364.482 372.078H385.673C386.813 372.078 387.737 371.154 387.737 370.014V369.985C387.737 368.845 386.813 367.921 385.673 367.921Z" fill="#0D6CC4"/>
<path d="M422.634 367.921H401.444C400.303 367.921 399.379 368.845 399.379 369.985V370.014C399.379 371.154 400.303 372.078 401.444 372.078H422.634C423.774 372.078 424.699 371.154 424.699 370.014V369.985C424.699 368.845 423.774 367.921 422.634 367.921Z" fill="#0D6CC4"/>
<path d="M459.596 367.921H438.405C437.265 367.921 436.341 368.845 436.341 369.985V370.014C436.341 371.154 437.265 372.078 438.405 372.078H459.596C460.736 372.078 461.661 371.154 461.661 370.014V369.985C461.661 368.845 460.736 367.921 459.596 367.921Z" fill="#0D6CC4"/>
<path d="M496.586 367.921H475.396C474.255 367.921 473.331 368.845 473.331 369.985V370.014C473.331 371.154 474.255 372.078 475.396 372.078H496.586C497.726 372.078 498.651 371.154 498.651 370.014V369.985C498.651 368.845 497.726 367.921 496.586 367.921Z" fill="#0D6CC4"/>
<path d="M533.548 367.921H512.358C511.217 367.921 510.293 368.845 510.293 369.985V370.014C510.293 371.154 511.217 372.078 512.358 372.078H533.548C534.689 372.078 535.613 371.154 535.613 370.014V369.985C535.613 368.845 534.689 367.921 533.548 367.921Z" fill="#0D6CC4"/>
<path d="M466.335 384.782H327.521C326.38 384.782 325.456 385.706 325.456 386.846V386.875C325.456 388.015 326.38 388.94 327.521 388.94H466.335C467.475 388.94 468.4 388.015 468.4 386.875V386.846C468.4 385.706 467.475 384.782 466.335 384.782Z" fill="#0D6CC4"/>
<path d="M751.791 327.031H581.549C579.95 327.031 578.653 328.321 578.653 329.913C578.653 331.504 579.95 332.794 581.549 332.794H751.791C753.391 332.794 754.687 331.504 754.687 329.913C754.687 328.321 753.391 327.031 751.791 327.031Z" fill="#0D6CC4"/>
<path d="M751.791 352.293H581.549C579.95 352.293 578.653 353.583 578.653 355.175C578.653 356.766 579.95 358.057 581.549 358.057H751.791C753.391 358.057 754.687 356.766 754.687 355.175C754.687 353.583 753.391 352.293 751.791 352.293Z" fill="#0F3579"/>
<path d="M751.791 375.95H581.549C579.95 375.95 578.653 377.24 578.653 378.831C578.653 380.423 579.95 381.713 581.549 381.713H751.791C753.391 381.713 754.687 380.423 754.687 378.831C754.687 377.24 753.391 375.95 751.791 375.95Z" fill="#0F3579"/>
<path d="M751.791 399.577H581.549C579.95 399.577 578.653 400.868 578.653 402.459C578.653 404.051 579.95 405.341 581.549 405.341H751.791C753.391 405.341 754.687 404.051 754.687 402.459C754.687 400.868 753.391 399.577 751.791 399.577Z" fill="#0F3579"/>
<path d="M751.791 423.234H581.549C579.95 423.234 578.653 424.524 578.653 426.116C578.653 427.707 579.95 428.998 581.549 428.998H751.791C753.391 428.998 754.687 427.707 754.687 426.116C754.687 424.524 753.391 423.234 751.791 423.234Z" fill="#0F3579"/>
<path d="M669.007 446.891H581.549C579.95 446.891 578.653 448.181 578.653 449.773C578.653 451.364 579.95 452.655 581.549 452.655H669.007C670.607 452.655 671.904 451.364 671.904 449.773C671.904 448.181 670.607 446.891 669.007 446.891Z" fill="#0F3579"/>
<path d="M726.185 462.977H638.727C637.128 462.977 635.831 464.268 635.831 465.859C635.831 467.451 637.128 468.741 638.727 468.741H726.185C727.785 468.741 729.081 467.451 729.081 465.859C729.081 464.268 727.785 462.977 726.185 462.977Z" fill="#0F3579"/>
<path d="M726.185 479.666H638.727C637.128 479.666 635.831 480.956 635.831 482.548C635.831 484.14 637.128 485.43 638.727 485.43H726.185C727.785 485.43 729.081 484.14 729.081 482.548C729.081 480.956 727.785 479.666 726.185 479.666Z" fill="#0F3579"/>
<path d="M389.831 479.666H349.055C347.456 479.666 346.159 480.956 346.159 482.548C346.159 484.14 347.456 485.43 349.055 485.43H389.831C391.43 485.43 392.727 484.14 392.727 482.548C392.727 480.956 391.43 479.666 389.831 479.666Z" fill="#0F3579"/>
<path d="M389.831 465.873H349.055C347.456 465.873 346.159 467.164 346.159 468.755C346.159 470.347 347.456 471.637 349.055 471.637H389.831C391.43 471.637 392.727 470.347 392.727 468.755C392.727 467.164 391.43 465.873 389.831 465.873Z" fill="#0F3579"/>
<path d="M389.831 452.081H349.055C347.456 452.081 346.159 453.371 346.159 454.963C346.159 456.555 347.456 457.845 349.055 457.845H389.831C391.43 457.845 392.727 456.555 392.727 454.963C392.727 453.371 391.43 452.081 389.831 452.081Z" fill="#0F3579"/>
<path d="M389.831 438.317H349.055C347.456 438.317 346.159 439.607 346.159 441.199C346.159 442.791 347.456 444.081 349.055 444.081H389.831C391.43 444.081 392.727 442.791 392.727 441.199C392.727 439.607 391.43 438.317 389.831 438.317Z" fill="#0F3579"/>
<path d="M428.34 438.317H415.982C414.382 438.317 413.085 439.607 413.085 441.199C413.085 442.791 414.382 444.081 415.982 444.081H428.34C429.94 444.081 431.237 442.791 431.237 441.199C431.237 439.607 429.94 438.317 428.34 438.317Z" fill="#0F3579"/>
<path d="M428.34 468.798H415.982C414.382 468.798 413.085 470.089 413.085 471.68C413.085 473.272 414.382 474.562 415.982 474.562H428.34C429.94 474.562 431.237 473.272 431.237 471.68C431.237 470.089 429.94 468.798 428.34 468.798Z" fill="#0F3579"/>
<g opacity="0.17">
<path opacity="0.17" d="M783.62 422.546V371.906L629.809 525.718H680.42L783.62 422.546Z" fill="#479EE8"/>
<path opacity="0.17" d="M518.809 525.718L783.62 260.907V243.616H665.853L383.723 525.718H518.809Z" fill="#479EE8"/>
<path opacity="0.17" d="M306.989 366.315V480.325L543.67 243.616H429.688L306.989 366.315Z" fill="#479EE8"/>
</g>
<path d="M573.378 434.618H520.416V474.476H573.378V434.618Z" fill="#FEB187"/>
<path d="M520.416 465.873C537.501 472.21 556.292 472.21 573.378 465.873V477.343L558.811 480.01L546.911 482.447L520.416 473.702V465.873Z" fill="#F88B65"/>
<path d="M609.966 676.117H483.511C469.812 676.117 458.707 687.222 458.707 700.92V725.38C458.707 739.078 469.812 750.183 483.511 750.183H609.966C623.665 750.183 634.77 739.078 634.77 725.38V700.92C634.77 687.222 623.665 676.117 609.966 676.117Z" fill="#D1EFFE"/>
<path d="M555.485 316.565L592.446 279.717C595.142 285.549 596.429 291.932 596.205 298.352C595.981 304.772 594.251 311.05 591.156 316.679L606.411 301.424C606.411 301.424 613.264 322.013 599.357 333.282L611.945 320.665C611.945 320.665 619.859 344.064 590.64 361.985L555.485 316.565Z" fill="#AEE5FE"/>
<path d="M585.736 355.562L597.378 357.082C597.378 356.193 600.446 323.934 563.427 308.621L555.398 316.65L585.736 355.562Z" fill="#0F3579"/>
<path d="M591.27 411.707C600.345 411.707 607.701 404.351 607.701 395.276C607.701 386.202 600.345 378.846 591.27 378.846C582.196 378.846 574.84 386.202 574.84 395.276C574.84 404.351 582.196 411.707 591.27 411.707Z" fill="#FEB187"/>
<path d="M502.895 411.707C511.969 411.707 519.325 404.351 519.325 395.276C519.325 386.202 511.969 378.846 502.895 378.846C493.82 378.846 486.464 386.202 486.464 395.276C486.464 404.351 493.82 411.707 502.895 411.707Z" fill="#FEB187"/>
<path d="M597.98 366.946C597.98 338.741 575.116 315.876 546.911 315.876C518.706 315.876 495.841 338.741 495.841 366.946V407.176C495.841 435.381 518.706 458.246 546.911 458.246C575.116 458.246 597.98 435.381 597.98 407.176V366.946Z" fill="#AEE5FE"/>
<path d="M506.25 399.262V411.707L512.529 405.427L517.72 410.617L522.68 405.657L527.24 410.245V395.936L525.634 404.682L522.709 401.499L517.748 407.234L512.443 401.413L508.601 405.571L506.25 399.262Z" fill="#459EE6"/>
<path d="M530.279 376.581V392.552L538.337 384.495L544.989 391.147L551.327 384.81L557.205 390.688V372.337L555.14 383.548L551.384 379.477L545.018 386.789L538.194 379.362L533.29 384.695L530.279 376.581Z" fill="#459EE6"/>
<path d="M570.252 414.345V424.295L575.27 419.277L579.428 423.435L583.385 419.478L587.027 423.148V411.707L585.765 418.704L583.414 416.152L579.428 420.711L575.184 416.066L572.144 419.42L570.252 414.345Z" fill="#459EE6"/>
<path d="M536.129 452.11V465.415L539.857 461.687L543.929 465.759L547.771 461.916L551.728 465.874V452.11H536.129Z" fill="#AEE5FE"/>
<path d="M549.778 451.106L551.728 462.375L554.797 459.278L558.18 462.662L561.363 459.479L564.632 462.748V451.335L549.778 451.106Z" fill="#AEE5FE"/>
<path d="M523.226 451.335V462.375L526.322 459.278L529.677 462.662L532.86 459.479L536.129 462.748L537.334 451.106L523.226 451.335Z" fill="#AEE5FE"/>
<path d="M513.992 330.758L502.551 319.346V330.758H491.798L499.856 338.816H491.798L500.515 347.562H513.992V330.758Z" fill="#AEE5FE"/>
<path d="M427.911 576.558L422.205 612.172H455.84V572.113L432.011 567.153" fill="#FEB187"/>
<path d="M449.732 583.813H426.763L427.91 576.558L449.732 583.813Z" fill="#DC9266"/>
<path d="M487.468 485.086C463.381 496.871 441.961 500.484 414.921 572.257L455.869 585.849C455.869 585.849 482.823 518.779 487.468 485.086Z" fill="#0C2898"/>
<path d="M663.101 576.558L668.807 612.172H635.172V572.113L659.001 567.153" fill="#FEB187"/>
<path d="M641.279 583.813H664.248L663.101 576.558L641.279 583.813Z" fill="#DC9266"/>
<path d="M603.543 485.086C627.601 496.871 649.05 500.484 676.09 572.257L635.143 585.849C635.143 585.849 608.189 518.779 603.543 485.086Z" fill="#0C2898"/>
<path d="M558.81 721.308H532.372C487.324 721.308 459.366 699.974 459.366 650.395L450.477 553.59C450.538 531.886 459.184 511.087 474.529 495.738C489.873 480.388 510.668 471.734 532.372 471.666H558.81C580.514 471.734 601.309 480.388 616.654 495.738C631.998 511.087 640.645 531.886 640.705 553.59L626.712 644.574C626.569 701.752 603.715 721.308 558.81 721.308Z" fill="#224DC2"/>
<path d="M612.404 491.91C559.929 500.111 490.049 493.115 478.579 491.91C466.643 502.284 457.96 515.887 453.574 531.08L461.718 531.94L494.866 536.614L537.333 543.267L576.532 545.762L621.551 540.801L636.032 526.98C631.341 513.433 623.197 501.345 612.404 491.91V491.91Z" fill="#133AAF"/>
<path d="M484.027 969.115C484.027 976.398 494.264 975.28 506.967 975.28C519.669 975.28 529.906 976.398 529.906 969.115C529.906 961.832 519.669 955.925 506.967 955.925C494.264 955.925 484.027 961.832 484.027 969.115Z" fill="#224DC2"/>
<path d="M469.432 750.212L506.451 965.645C514.023 968.001 522.133 968.001 529.706 965.645V802.199L469.432 750.212Z" fill="#D1EFFE"/>
<path d="M529.705 805.697L527.727 802.056L525.547 801.769L476.8 796.722L483.969 834.659C489.962 834.974 517.031 822.472 529.304 853.814L529.734 851.634L529.705 805.697Z" fill="#AEE5FE"/>
<path d="M609.507 969.115C609.507 976.398 599.27 975.28 586.567 975.28C573.865 975.28 563.628 976.398 563.628 969.115C563.628 961.832 573.865 955.925 586.567 955.925C599.27 955.925 609.507 961.832 609.507 969.115Z" fill="#224DC2"/>
<path d="M624.103 750.212L587.084 965.645C579.511 968.001 571.401 968.001 563.828 965.645V802.199L624.103 750.212Z" fill="#D1EFFE"/>
<path d="M563.828 805.697L565.807 802.056L567.986 801.769L616.733 796.722L609.565 834.659C603.572 834.974 576.503 822.472 564.23 853.814L563.8 851.634L563.828 805.697Z" fill="#AEE5FE"/>
<path d="M540.86 796.923V936.024C540.86 938.257 542.67 940.067 544.903 940.067H548.545C550.778 940.067 552.588 938.257 552.588 936.024V796.923C552.588 794.69 550.778 792.88 548.545 792.88H544.903C542.67 792.88 540.86 794.69 540.86 796.923Z" fill="#2273DB"/>
<path d="M546.71 788.837H550.524C554.615 788.837 558.539 790.462 561.432 793.355C564.326 796.248 565.951 800.172 565.951 804.264V840.996C565.951 846.099 563.924 850.993 560.315 854.601C556.707 858.21 551.813 860.237 546.71 860.237V860.237C541.607 860.237 536.713 858.21 533.105 854.601C529.497 850.993 527.469 846.099 527.469 840.996V808.078C527.469 802.975 529.497 798.081 533.105 794.472C536.713 790.864 541.607 788.837 546.71 788.837Z" fill="#22A4FD"/>
<g style="mix-blend-mode:multiply" opacity="0.65">
<path d="M565.98 808.622C559.929 805.942 553.385 804.557 546.768 804.557C540.15 804.557 533.606 805.942 527.556 808.622V794.916C533.606 792.235 540.15 790.851 546.768 790.851C553.385 790.851 559.929 792.235 565.98 794.916V808.622Z" fill="#224DC2"/>
</g>
<path d="M458.621 752.85H434.19C418.864 752.735 404.181 746.674 393.237 735.943C382.294 725.213 375.944 710.652 375.528 695.331C375.111 680.01 380.66 665.126 391.005 653.817C401.349 642.508 415.681 635.658 430.979 634.71C431.341 634.682 431.706 634.682 432.068 634.71H434.19C435.091 634.651 435.994 634.777 436.844 635.081C437.694 635.384 438.473 635.86 439.132 636.476C439.791 637.093 440.316 637.839 440.676 638.667C441.035 639.495 441.22 640.388 441.22 641.291C441.22 642.194 441.035 643.087 440.676 643.915C440.316 644.743 439.791 645.489 439.132 646.106C438.473 646.723 437.694 647.198 436.844 647.502C435.994 647.805 435.091 647.931 434.19 647.872C428.165 647.872 422.199 649.059 416.633 651.364C411.066 653.67 406.009 657.049 401.748 661.31C397.488 665.57 394.109 670.628 391.803 676.194C389.497 681.761 388.311 687.727 388.311 693.752C388.311 699.777 389.497 705.743 391.803 711.309C394.109 716.875 397.488 721.933 401.748 726.193C406.009 730.454 411.066 733.833 416.633 736.139C422.199 738.444 428.165 739.631 434.19 739.631H458.621C460.37 739.631 462.048 740.326 463.285 741.563C464.521 742.8 465.216 744.477 465.216 746.226C465.216 747.975 464.521 749.653 463.285 750.89C462.048 752.127 460.37 752.821 458.621 752.821V752.85Z" fill="#224DC2"/>
<path d="M440.413 628.087H419.136C413.055 628.087 408.125 633.016 408.125 639.098V639.126C408.125 645.208 413.055 650.137 419.136 650.137H440.413C446.494 650.137 451.424 645.208 451.424 639.126V639.098C451.424 633.016 446.494 628.087 440.413 628.087Z" fill="#AEE5FE"/>
<path d="M419.165 629.377H440.413C443.217 629.387 445.912 630.467 447.947 632.396C449.983 634.325 451.206 636.958 451.366 639.757C451.378 639.547 451.378 639.337 451.366 639.126C451.359 636.201 450.193 633.397 448.124 631.329C446.056 629.26 443.252 628.094 440.326 628.087H419.165C416.239 628.094 413.435 629.26 411.367 631.329C409.298 633.397 408.132 636.201 408.125 639.126C408.113 639.337 408.113 639.547 408.125 639.757C408.286 636.943 409.521 634.297 411.575 632.366C413.629 630.435 416.345 629.365 419.165 629.377V629.377Z" fill="#AEE5FE"/>
<path d="M631.988 752.85H656.304C671.631 752.735 686.314 746.674 697.257 735.943C708.201 725.213 714.55 710.652 714.967 695.331C715.383 680.01 709.834 665.126 699.49 653.817C689.145 642.508 674.813 635.658 659.516 634.71C659.153 634.682 658.789 634.682 658.426 634.71H656.304C655.404 634.651 654.5 634.777 653.65 635.081C652.8 635.384 652.022 635.86 651.363 636.476C650.704 637.093 650.178 637.839 649.819 638.667C649.46 639.495 649.275 640.388 649.275 641.291C649.275 642.194 649.46 643.087 649.819 643.915C650.178 644.743 650.704 645.489 651.363 646.106C652.022 646.723 652.8 647.198 653.65 647.502C654.5 647.805 655.404 647.931 656.304 647.872C662.329 647.872 668.295 649.059 673.862 651.364C679.428 653.67 684.486 657.049 688.746 661.31C693.006 665.57 696.386 670.628 698.692 676.194C700.997 681.761 702.184 687.727 702.184 693.752C702.184 699.777 700.997 705.743 698.692 711.309C696.386 716.875 693.006 721.933 688.746 726.193C684.486 730.454 679.428 733.833 673.862 736.139C668.295 738.444 662.329 739.631 656.304 739.631H631.874C630.124 739.631 628.447 740.326 627.21 741.563C625.973 742.8 625.278 744.477 625.278 746.226C625.278 747.975 625.973 749.653 627.21 750.89C628.447 752.127 630.124 752.821 631.874 752.821L631.988 752.85Z" fill="#224DC2"/>
<path d="M650.197 650.137H671.473C677.555 650.137 682.484 645.207 682.484 639.126V639.098C682.484 633.016 677.555 628.086 671.473 628.086H650.197C644.115 628.086 639.186 633.016 639.186 639.098V639.126C639.186 645.207 644.115 650.137 650.197 650.137Z" fill="#AEE5FE"/>
<path d="M671.445 629.377H650.197C647.393 629.387 644.698 630.467 642.662 632.396C640.627 634.325 639.404 636.958 639.243 639.757C639.231 639.547 639.231 639.337 639.243 639.126C639.251 636.201 640.416 633.397 642.485 631.329C644.554 629.26 647.357 628.094 650.283 628.087H671.531C674.456 628.094 677.26 629.26 679.329 631.329C681.398 633.397 682.563 636.201 682.571 639.126C682.583 639.337 682.583 639.547 682.571 639.757C682.409 636.928 681.162 634.27 679.089 632.336C677.017 630.403 674.279 629.343 671.445 629.377V629.377Z" fill="#AEE5FE"/>
<path d="M642.14 734.297H451.309C436.676 734.297 424.814 746.16 424.814 760.793C424.814 775.426 436.676 787.288 451.309 787.288H642.14C656.773 787.288 668.635 775.426 668.635 760.793C668.635 746.16 656.773 734.297 642.14 734.297Z" fill="#AEE5FE"/>
<path d="M579.055 710.584H510.235C496.992 710.546 484.301 705.268 474.936 695.903C465.571 686.538 460.293 673.847 460.255 660.604L447.753 552.443C447.791 539.199 453.069 526.508 462.434 517.143C471.799 507.778 484.489 502.5 497.733 502.462H595.715C608.959 502.5 621.649 507.778 631.014 517.143C640.379 526.508 645.657 539.199 645.695 552.443L629.035 660.604C628.997 673.847 623.719 686.538 614.354 695.903C604.989 705.268 592.299 710.546 579.055 710.584V710.584Z" fill="#AEE5FE"/>
<path d="M497.733 504.556H595.715C608.697 504.601 621.155 509.685 630.462 518.736C639.77 527.787 645.2 540.097 645.609 553.073V552.443C645.571 539.199 640.293 526.508 630.928 517.143C621.563 507.778 608.873 502.5 595.629 502.462H497.733C484.489 502.5 471.799 507.778 462.434 517.143C453.069 526.508 447.791 539.199 447.753 552.443V553.217C448.133 540.203 453.562 527.848 462.89 518.766C472.218 509.684 484.714 504.587 497.733 504.556V504.556Z" fill="#AEE5FE"/>
<path d="M630.899 773.84H462.55C456.072 773.84 450.822 779.091 450.822 785.568C450.822 792.045 456.072 797.296 462.55 797.296H630.899C637.376 797.296 642.627 792.045 642.627 785.568C642.627 779.091 637.376 773.84 630.899 773.84Z" fill="#224DC2"/>
<path d="M589.722 796.895H503.755C499.305 796.895 495.698 800.502 495.698 804.952V812.293C495.698 816.743 499.305 820.351 503.755 820.351H589.722C594.172 820.351 597.779 816.743 597.779 812.293V804.952C597.779 800.502 594.172 796.895 589.722 796.895Z" fill="#224DC2"/>
<path d="M620.691 791.905H472.758C469.511 791.905 466.879 794.531 466.879 797.769C466.879 801.008 469.511 803.633 472.758 803.633H620.691C623.937 803.633 626.569 801.008 626.569 797.769C626.569 794.531 623.937 791.905 620.691 791.905Z" fill="#2273DB"/>
<path d="M536.043 949.157V930.949C536.051 928.122 537.177 925.413 539.176 923.415C541.174 921.416 543.883 920.289 546.71 920.282V920.282C549.542 920.282 552.258 921.405 554.263 923.404C556.268 925.404 557.398 928.117 557.406 930.949V949.157" fill="#22A4FD"/>
<path d="M467.052 968.943C466.106 968.928 465.194 968.593 464.463 967.993C463.732 967.394 463.226 966.564 463.026 965.64C462.827 964.716 462.946 963.752 463.365 962.904C463.783 962.056 464.476 961.375 465.331 960.971C491.632 949.114 520.153 942.982 549.004 942.982C577.854 942.982 606.375 949.114 632.677 960.971C633.684 961.424 634.471 962.258 634.864 963.291C635.256 964.323 635.222 965.469 634.77 966.477C634.317 967.485 633.483 968.271 632.451 968.664C631.418 969.056 630.272 969.023 629.264 968.57C604.033 957.169 576.663 951.273 548.975 951.273C521.288 951.273 493.917 957.169 468.686 968.57C468.172 968.805 467.616 968.932 467.052 968.943V968.943Z" fill="#2273DB"/>
<path d="M561.219 940.067H533.921C531.292 940.067 529.161 942.198 529.161 944.827V949.1C529.161 951.729 531.292 953.86 533.921 953.86H561.219C563.848 953.86 565.979 951.729 565.979 949.1V944.827C565.979 942.198 563.848 940.067 561.219 940.067Z" fill="#224DC2"/>
<path d="M550.467 949.874C550.467 948.259 549.157 946.949 547.542 946.949C545.926 946.949 544.617 948.259 544.617 949.874V980.986C544.617 982.602 545.926 983.911 547.542 983.911C549.157 983.911 550.467 982.602 550.467 980.986V949.874Z" fill="#2273DB"/>
<path d="M555.484 979.811C555.484 975.424 551.928 971.868 547.542 971.868C543.155 971.868 539.599 975.424 539.599 979.811V994.836C539.599 999.223 543.155 1002.78 547.542 1002.78C551.928 1002.78 555.484 999.223 555.484 994.836V979.811Z" fill="#AEE5FE"/>
<path d="M638.01 988.614C646.293 988.614 653.007 981.899 653.007 973.617C653.007 965.334 646.293 958.62 638.01 958.62C629.728 958.62 623.013 965.334 623.013 973.617C623.013 981.899 629.728 988.614 638.01 988.614Z" fill="#AEE5FE"/>
<path d="M638.01 982.564C642.951 982.564 646.957 978.558 646.957 973.617C646.957 968.676 642.951 964.671 638.01 964.671C633.069 964.671 629.063 968.676 629.063 973.617C629.063 978.558 633.069 982.564 638.01 982.564Z" fill="#224DC2"/>
<path d="M638.01 977.201C639.989 977.201 641.594 975.597 641.594 973.617C641.594 971.637 639.989 970.033 638.01 970.033C636.03 970.033 634.426 971.637 634.426 973.617C634.426 975.597 636.03 977.201 638.01 977.201Z" fill="#2273DB"/>
<path d="M462.75 988.614C471.033 988.614 477.747 981.899 477.747 973.617C477.747 965.334 471.033 958.62 462.75 958.62C454.468 958.62 447.753 965.334 447.753 973.617C447.753 981.899 454.468 988.614 462.75 988.614Z" fill="#AEE5FE"/>
<path d="M462.75 982.564C467.691 982.564 471.697 978.558 471.697 973.617C471.697 968.676 467.691 964.671 462.75 964.671C457.809 964.671 453.804 968.676 453.804 973.617C453.804 978.558 457.809 982.564 462.75 982.564Z" fill="#224DC2"/>
<path d="M462.75 977.201C464.73 977.201 466.334 975.597 466.334 973.617C466.334 971.637 464.73 970.033 462.75 970.033C460.771 970.033 459.166 971.637 459.166 973.617C459.166 975.597 460.771 977.201 462.75 977.201Z" fill="#2273DB"/>
<path d="M573.291 571.196H520.186C506.661 571.196 495.698 582.153 495.698 595.67C495.698 609.186 506.661 620.144 520.186 620.144H573.291C586.816 620.144 597.779 609.186 597.779 595.67C597.779 582.153 586.816 571.196 573.291 571.196Z" fill="#224DC2"/>
<path d="M573.291 571.196H520.157C513.677 571.218 507.469 573.803 502.887 578.385C498.304 582.967 495.72 589.175 495.698 595.655V595.655V596.057C495.825 589.647 498.455 583.541 503.026 579.045C507.597 574.549 513.746 572.02 520.157 571.999H573.291C579.7 572.027 585.845 574.559 590.414 579.053C594.984 583.547 597.616 589.649 597.751 596.057V595.655C597.728 589.175 595.144 582.967 590.562 578.385C585.98 573.803 579.771 571.218 573.291 571.196Z" fill="#226EE5"/>
<path d="M550.323 589.691H543.097C538.678 589.691 535.097 593.273 535.097 597.691V777.568C535.097 781.986 538.678 785.568 543.097 785.568H550.323C554.741 785.568 558.323 781.986 558.323 777.568V597.691C558.323 593.273 554.741 589.691 550.323 589.691Z" fill="#111F9A"/>
<path d="M554.223 601.907H539.226C538.323 601.907 537.592 602.638 537.592 603.541V605.061C537.592 605.963 538.323 606.695 539.226 606.695H554.223C555.126 606.695 555.857 605.963 555.857 605.061V603.541C555.857 602.638 555.126 601.907 554.223 601.907Z" fill="#161145"/>
<path d="M554.223 615.785H539.226C538.323 615.785 537.592 616.517 537.592 617.42V618.939C537.592 619.842 538.323 620.574 539.226 620.574H554.223C555.126 620.574 555.857 619.842 555.857 618.939V617.42C555.857 616.517 555.126 615.785 554.223 615.785Z" fill="#161145"/>
<path d="M554.223 628.975H539.226C538.323 628.975 537.592 629.707 537.592 630.61V632.129C537.592 633.032 538.323 633.764 539.226 633.764H554.223C555.126 633.764 555.857 633.032 555.857 632.129V630.61C555.857 629.707 555.126 628.975 554.223 628.975Z" fill="#161145"/>
<path d="M554.223 642.166H539.226C538.323 642.166 537.592 642.897 537.592 643.8V645.32C537.592 646.223 538.323 646.954 539.226 646.954H554.223C555.126 646.954 555.857 646.223 555.857 645.32V643.8C555.857 642.897 555.126 642.166 554.223 642.166Z" fill="#161145"/>
<path d="M554.223 655.356H539.226C538.323 655.356 537.592 656.088 537.592 656.991V658.51C537.592 659.413 538.323 660.145 539.226 660.145H554.223C555.126 660.145 555.857 659.413 555.857 658.51V656.991C555.857 656.088 555.126 655.356 554.223 655.356Z" fill="#161145"/>
<path d="M554.223 668.547H539.226C538.323 668.547 537.592 669.278 537.592 670.181V671.701C537.592 672.603 538.323 673.335 539.226 673.335H554.223C555.126 673.335 555.857 672.603 555.857 671.701V670.181C555.857 669.278 555.126 668.547 554.223 668.547Z" fill="#161145"/>
<path d="M554.223 681.737H539.226C538.323 681.737 537.592 682.468 537.592 683.371V684.891C537.592 685.794 538.323 686.525 539.226 686.525H554.223C555.126 686.525 555.857 685.794 555.857 684.891V683.371C555.857 682.468 555.126 681.737 554.223 681.737Z" fill="#161145"/>
<path d="M554.223 694.927H539.226C538.323 694.927 537.592 695.659 537.592 696.562V698.081C537.592 698.984 538.323 699.716 539.226 699.716H554.223C555.126 699.716 555.857 698.984 555.857 698.081V696.562C555.857 695.659 555.126 694.927 554.223 694.927Z" fill="#161145"/>
<path d="M554.223 708.118H539.226C538.323 708.118 537.592 708.85 537.592 709.752V711.272C537.592 712.175 538.323 712.907 539.226 712.907H554.223C555.126 712.907 555.857 712.175 555.857 711.272V709.752C555.857 708.85 555.126 708.118 554.223 708.118Z" fill="#161145"/>
<path d="M554.223 721.308H539.226C538.323 721.308 537.592 722.04 537.592 722.943V724.462C537.592 725.365 538.323 726.097 539.226 726.097H554.223C555.126 726.097 555.857 725.365 555.857 724.462V722.943C555.857 722.04 555.126 721.308 554.223 721.308Z" fill="#161145"/>
<path d="M554.223 734.498H539.226C538.323 734.498 537.592 735.23 537.592 736.133V737.653C537.592 738.555 538.323 739.287 539.226 739.287H554.223C555.126 739.287 555.857 738.555 555.857 737.653V736.133C555.857 735.23 555.126 734.498 554.223 734.498Z" fill="#161145"/>
<path d="M554.223 747.689H539.226C538.323 747.689 537.592 748.42 537.592 749.323V750.843C537.592 751.745 538.323 752.477 539.226 752.477H554.223C555.126 752.477 555.857 751.745 555.857 750.843V749.323C555.857 748.42 555.126 747.689 554.223 747.689Z" fill="#161145"/>
<path d="M554.223 760.879H539.226C538.323 760.879 537.592 761.611 537.592 762.514V764.033C537.592 764.936 538.323 765.668 539.226 765.668H554.223C555.126 765.668 555.857 764.936 555.857 764.033V762.514C555.857 761.611 555.126 760.879 554.223 760.879Z" fill="#161145"/>
<path d="M788.208 591.555C785.373 591.555 782.601 590.714 780.243 589.139C777.885 587.563 776.047 585.324 774.962 582.704C773.877 580.085 773.593 577.202 774.146 574.421C774.7 571.639 776.065 569.085 778.07 567.08C780.075 565.075 782.63 563.709 785.411 563.156C788.192 562.603 791.075 562.887 793.695 563.972C796.315 565.057 798.554 566.895 800.129 569.252C801.705 571.61 802.546 574.382 802.546 577.218C802.546 581.02 801.035 584.667 798.346 587.356C795.657 590.045 792.011 591.555 788.208 591.555V591.555ZM788.208 567.153C786.211 567.147 784.256 567.734 782.593 568.84C780.929 569.946 779.631 571.52 778.863 573.364C778.094 575.208 777.89 577.238 778.276 579.198C778.663 581.158 779.622 582.959 781.032 584.373C782.443 585.788 784.241 586.752 786.2 587.144C788.159 587.536 790.189 587.337 792.035 586.574C793.881 585.811 795.46 584.517 796.57 582.857C797.68 581.196 798.273 579.244 798.273 577.246C798.273 574.574 797.214 572.011 795.327 570.119C793.44 568.227 790.88 567.16 788.208 567.153V567.153Z" fill="#226FCD"/>
<path d="M787.979 557.059V585.734C787.964 591.882 785.515 597.773 781.168 602.121C776.821 606.468 770.929 608.917 764.781 608.932V608.932C758.633 608.917 752.742 606.468 748.394 602.121C744.047 597.773 741.598 591.882 741.583 585.734V557.059H787.979Z" fill="#AEE5FE"/>
<path d="M785.743 605.864H743.849C742.424 605.864 741.268 607.019 741.268 608.444V609.591C741.268 611.017 742.424 612.172 743.849 612.172H785.743C787.168 612.172 788.324 611.017 788.324 609.591V608.444C788.324 607.019 787.168 605.864 785.743 605.864Z" fill="#226FCD"/>
<path d="M396.253 106.837H89.0325L88.7458 105.461C87.2925 98.6414 87.9454 91.5412 90.6179 85.1009C93.2904 78.6606 97.8564 73.1842 103.711 69.3971C109.566 65.6101 116.433 63.6911 123.403 63.8943C130.373 64.0976 137.116 66.4135 142.74 70.5353C146.497 51.8322 156.241 34.8606 170.498 22.1865C184.756 9.51241 202.753 1.82489 221.767 0.286238C240.782 -1.25241 259.78 3.44147 275.89 13.6582C292 23.875 304.346 39.059 311.061 56.9148C318.454 50.1307 327.664 45.6486 337.564 44.0168C347.464 42.3849 357.626 43.6741 366.805 47.7267C375.984 51.7792 383.783 58.4194 389.247 66.8347C394.711 75.2501 397.605 85.0757 397.572 95.1095C397.577 98.5874 397.222 102.056 396.511 105.461L396.253 106.837ZM91.8713 103.397H393.386C393.868 100.661 394.107 97.8875 394.103 95.1095C394.105 85.543 391.262 76.192 385.935 68.2456C380.609 60.2991 373.04 54.1161 364.19 50.4828C355.34 46.8494 345.61 45.9299 336.236 47.8412C326.863 49.7524 318.269 54.408 311.548 61.216L309.598 63.2232L308.681 60.5565C302.61 42.7829 290.782 27.5434 275.07 17.2529C259.358 6.96227 240.662 2.20911 221.943 3.74651C203.224 5.28391 185.554 13.0239 171.731 25.7402C157.909 38.4564 148.726 55.4216 145.636 73.9476L145.149 76.9871L142.798 74.9799C138.292 71.0775 132.758 68.5544 126.857 67.7118C120.956 66.8692 114.937 67.7426 109.519 70.2279C104.101 72.7131 99.5131 76.7052 96.3024 81.7274C93.0917 86.7496 91.3942 92.5897 91.4125 98.5505C91.4509 100.175 91.6042 101.794 91.8713 103.397V103.397Z" fill="#224DC2"/>
<path d="M245.969 90.4642H218.097C217.227 90.4642 216.366 90.2929 215.562 89.96C214.759 89.6271 214.029 89.1392 213.413 88.5241C212.798 87.9091 212.31 87.1788 211.978 86.3752C211.645 85.5716 211.473 84.7102 211.473 83.8404V66.8649H204.104C202.901 66.858 201.727 66.4961 200.729 65.8245C199.731 65.1529 198.954 64.2016 198.494 63.0899C198.035 61.9781 197.914 60.7555 198.147 59.5753C198.38 58.3952 198.956 57.31 199.803 56.456L227.732 28.5555C228.887 27.4412 230.429 26.8185 232.033 26.8185C233.638 26.8185 235.18 27.4412 236.334 28.5555L264.263 56.456C265.112 57.3118 265.689 58.3995 265.921 59.5824C266.153 60.7652 266.029 61.9901 265.566 63.103C265.103 64.2159 264.322 65.1669 263.319 65.8364C262.317 66.5058 261.139 66.8637 259.934 66.8649H252.593V83.9264C252.563 85.6658 251.853 87.3244 250.615 88.5464C249.376 89.7685 247.709 90.457 245.969 90.4642V90.4642ZM231.918 30.2473C231.572 30.2461 231.229 30.314 230.909 30.4469C230.589 30.5799 230.298 30.7752 230.055 31.0215L202.24 58.922C201.872 59.291 201.621 59.7608 201.519 60.2721C201.418 60.7834 201.47 61.3134 201.67 61.795C201.869 62.2767 202.207 62.6885 202.64 62.9784C203.073 63.2683 203.583 63.4234 204.104 63.424H214.914V83.9264C214.914 84.7705 215.25 85.5801 215.847 86.177C216.443 86.7739 217.253 87.1093 218.097 87.1093H245.969C246.808 87.1017 247.61 86.763 248.201 86.167C248.792 85.5709 249.123 84.7656 249.123 83.9264V63.424H259.934C260.451 63.4158 260.956 63.257 261.385 62.9671C261.814 62.6771 262.149 62.2684 262.35 61.791C262.551 61.3136 262.608 60.788 262.515 60.2786C262.422 59.7691 262.183 59.2977 261.826 58.922L233.897 30.9929C233.357 30.5014 232.649 30.2347 231.918 30.2473Z" fill="#224DC2"/>
<path d="M990.107 735.645H771.004L770.803 734.67C770.483 733.036 770.32 731.375 770.316 729.71C770.294 725.169 771.528 720.711 773.883 716.829C776.238 712.947 779.622 709.792 783.659 707.714C787.696 705.636 792.23 704.716 796.757 705.055C801.285 705.395 805.631 706.981 809.313 709.637C812.005 696.31 818.959 684.22 829.125 675.192C839.291 666.164 852.118 660.688 865.67 659.591C879.222 658.493 892.763 661.834 904.25 669.108C915.736 676.383 924.545 687.196 929.346 699.917C936.108 693.701 944.964 690.261 954.149 690.282C963.91 690.289 973.271 694.16 980.186 701.049C987.101 707.937 991.008 717.283 991.054 727.043C991.049 729.528 990.799 732.005 990.308 734.441L990.107 735.645ZM773.068 733.179H988.129C988.473 731.229 988.645 729.253 988.645 727.272C988.639 720.454 986.608 713.791 982.808 708.129C979.009 702.467 973.613 698.061 967.306 695.471C960.998 692.881 954.063 692.224 947.381 693.582C940.699 694.94 934.572 698.253 929.776 703.1L928.371 704.533L927.74 702.641C923.374 690.004 914.926 679.18 903.729 671.874C892.531 664.569 879.221 661.198 865.896 662.292C852.571 663.386 839.99 668.884 830.134 677.918C820.279 686.952 813.71 699.01 811.464 712.19L811.12 714.34L809.457 712.906C806.24 710.15 802.3 708.372 798.104 707.785C793.909 707.198 789.633 707.826 785.783 709.594C781.933 711.362 778.67 714.197 776.381 717.762C774.092 721.327 772.873 725.473 772.868 729.71C772.854 730.831 772.921 731.953 773.068 733.065V733.179Z" fill="#224DC2"/>
<path d="M882.835 723.918H862.963C861.708 723.918 860.505 723.419 859.618 722.532C858.73 721.645 858.232 720.441 858.232 719.186V706.971H852.984C852.126 706.965 851.289 706.707 850.577 706.228C849.866 705.748 849.311 705.07 848.984 704.277C848.656 703.483 848.57 702.611 848.736 701.77C848.902 700.928 849.312 700.154 849.916 699.544L869.817 679.644C870.645 678.847 871.75 678.401 872.899 678.401C874.049 678.401 875.153 678.847 875.982 679.644L895.882 699.544C896.486 700.154 896.897 700.928 897.063 701.77C897.228 702.611 897.142 703.483 896.815 704.277C896.487 705.07 895.933 705.748 895.221 706.228C894.509 706.707 893.672 706.965 892.814 706.971H887.566V719.129C887.574 719.755 887.457 720.376 887.223 720.957C886.988 721.538 886.641 722.066 886.201 722.512C885.761 722.957 885.237 723.311 884.659 723.552C884.081 723.793 883.461 723.918 882.835 723.918ZM872.913 680.906C872.662 680.905 872.413 680.956 872.181 681.054C871.949 681.153 871.74 681.297 871.566 681.479L851.78 701.236C851.505 701.488 851.317 701.822 851.245 702.188C851.173 702.554 851.22 702.934 851.379 703.272C851.509 703.621 851.744 703.922 852.052 704.133C852.36 704.343 852.726 704.453 853.099 704.447H860.813V719.072C860.82 719.67 861.061 720.242 861.484 720.665C861.908 721.088 862.479 721.329 863.078 721.337H882.835C883.433 721.329 884.005 721.088 884.428 720.665C884.852 720.242 885.093 719.67 885.1 719.072V704.447H892.814C893.187 704.453 893.552 704.343 893.86 704.133C894.169 703.922 894.404 703.621 894.534 703.272C894.715 702.951 894.79 702.582 894.749 702.217C894.707 701.851 894.552 701.508 894.305 701.236L874.232 681.45C873.915 681.117 873.487 680.913 873.028 680.877L872.913 680.906Z" fill="#224DC2"/>
<path opacity="0.3" d="M444.8 77.2166H16.8584V79.3098H444.8V77.2166Z" fill="#AEE5FE"/>
<path opacity="0.3" d="M16.8584 77.2166H444.8V316.765C444.8 322.484 442.528 327.969 438.484 332.013C434.44 336.057 428.955 338.328 423.236 338.328H38.4218C35.5876 338.328 32.7813 337.77 30.1632 336.684C27.5452 335.599 25.1668 334.008 23.164 332.003C21.1613 329.997 19.5736 327.617 18.4916 324.997C17.4096 322.378 16.8546 319.571 16.8584 316.736V77.2166Z" fill="#AEE5FE"/>
<path opacity="0.3" d="M282.989 132.071H55.1108V213.88H282.989V132.071Z" fill="#AEE5FE"/>
<path opacity="0.3" d="M135.228 229.135H55.1108V254.512H135.228V229.135Z" fill="#AEE5FE"/>
<path opacity="0.3" d="M282.989 229.135H147.271V254.512H282.989V229.135Z" fill="#AEE5FE"/>
<path opacity="0.3" d="M422.147 132.071H298.1V167.485H422.147V132.071Z" fill="#AEE5FE"/>
<path opacity="0.3" d="M422.147 269.738H55.1108V305.152H422.147V269.738Z" fill="#AEE5FE"/>
<path opacity="0.3" d="M422.147 176.746H298.1V257.322H422.147V176.746Z" fill="#AEE5FE"/>
<path opacity="0.3" d="M444.8 77.2166H16.8584V119.913H444.8V77.2166Z" fill="#AEE5FE"/>
<path opacity="0.3" d="M34.063 106.35C38.9565 106.35 42.9235 102.383 42.9235 97.4897C42.9235 92.5962 38.9565 88.6292 34.063 88.6292C29.1695 88.6292 25.2025 92.5962 25.2025 97.4897C25.2025 102.383 29.1695 106.35 34.063 106.35Z" fill="#AEE5FE"/>
<path d="M34.0633 106.321C31.7308 106.329 29.49 105.414 27.83 103.775C26.17 102.137 25.2255 99.9079 25.2028 97.5755V97.5755C25.18 98.7576 25.3918 99.9324 25.8258 101.032C26.2598 102.132 26.9075 103.135 27.7314 103.983C28.5553 104.831 29.5391 105.507 30.626 105.972C31.7128 106.438 32.8811 106.683 34.0633 106.694C36.4311 106.664 38.6904 105.696 40.3459 104.003C42.0014 102.31 42.9181 100.029 42.8951 97.6615V97.6615C42.8501 99.9739 41.8997 102.176 40.2483 103.796C38.5969 105.415 36.3762 106.322 34.0633 106.321V106.321Z" fill="#AEE5FE"/>
<path opacity="0.3" d="M55.1104 106.35C60.0039 106.35 63.9709 102.383 63.9709 97.4897C63.9709 92.5962 60.0039 88.6292 55.1104 88.6292C50.2169 88.6292 46.2499 92.5962 46.2499 97.4897C46.2499 102.383 50.2169 106.35 55.1104 106.35Z" fill="#AEE5FE"/>
<path d="M55.1104 106.321C52.7779 106.329 50.5371 105.414 48.8771 103.775C47.217 102.137 46.2726 99.9079 46.2499 97.5755V97.5755C46.2499 99.9254 47.1834 102.179 48.8451 103.841C50.5067 105.502 52.7604 106.436 55.1104 106.436C57.4603 106.436 59.714 105.502 61.3757 103.841C63.0373 102.179 63.9709 99.9254 63.9709 97.5755C63.9709 97.5755 63.9709 97.5755 63.9709 97.5755C63.9481 99.9079 63.0037 102.137 61.3437 103.775C59.6836 105.414 57.4428 106.329 55.1104 106.321V106.321Z" fill="#AEE5FE"/>
<path opacity="0.3" d="M76.0144 106.35C80.9079 106.35 84.8749 102.383 84.8749 97.4897C84.8749 92.5962 80.9079 88.6292 76.0144 88.6292C71.1209 88.6292 67.1539 92.5962 67.1539 97.4897C67.1539 102.383 71.1209 106.35 76.0144 106.35Z" fill="#AEE5FE"/>
<path d="M76.0139 106.321C73.6814 106.329 71.4406 105.414 69.7806 103.775C68.1205 102.137 67.1761 99.9079 67.1534 97.5755C67.0848 98.7796 67.2627 99.9849 67.6763 101.118C68.0899 102.251 68.7304 103.287 69.5585 104.164C70.3867 105.041 71.3851 105.739 72.4927 106.216C73.6002 106.694 74.7935 106.94 75.9995 106.94C77.2055 106.94 78.3988 106.694 79.5064 106.216C80.6139 105.739 81.6123 105.041 82.4405 104.164C83.2687 103.287 83.9092 102.251 84.3227 101.118C84.7363 99.9849 84.9143 98.7796 84.8457 97.5755V97.5755C84.823 99.9029 83.8825 102.127 82.2287 103.765C80.5748 105.403 78.3414 106.321 76.0139 106.321V106.321Z" fill="#AEE5FE"/>
<path opacity="0.66" d="M444.8 119.082H16.8584V119.913H444.8V119.082Z" fill="#AEE5FE"/>
<path d="M34.0636 104.515C37.9436 104.515 41.0889 101.37 41.0889 97.4895C41.0889 93.6096 37.9436 90.4642 34.0636 90.4642C30.1837 90.4642 27.0383 93.6096 27.0383 97.4895C27.0383 101.37 30.1837 104.515 34.0636 104.515Z" fill="#AEE5FE"/>
<path d="M55.11 104.515C58.99 104.515 62.1353 101.37 62.1353 97.4895C62.1353 93.6096 58.99 90.4642 55.11 90.4642C51.2301 90.4642 48.0847 93.6096 48.0847 97.4895C48.0847 101.37 51.2301 104.515 55.11 104.515Z" fill="#0D6CC4"/>
<path d="M76.0141 104.515C79.894 104.515 83.0394 101.37 83.0394 97.4895C83.0394 93.6096 79.894 90.4642 76.0141 90.4642C72.1341 90.4642 68.9888 93.6096 68.9888 97.4895C68.9888 101.37 72.1341 104.515 76.0141 104.515Z" fill="#0F3579"/>
<path opacity="0.3" d="M41.0889 133.018C41.0889 129.138 37.9436 125.992 34.0636 125.992C30.1837 125.992 27.0383 129.138 27.0383 133.018V314.385C27.0383 318.265 30.1837 321.411 34.0636 321.411C37.9436 321.411 41.0889 318.265 41.0889 314.385V133.018Z" fill="#AEE5FE"/>
<path d="M36.3574 134.881C36.3574 133.329 35.0993 132.071 33.5473 132.071C31.9953 132.071 30.7372 133.329 30.7372 134.881V180.532C30.7372 182.084 31.9953 183.342 33.5473 183.342C35.0993 183.342 36.3574 182.084 36.3574 180.532V134.881Z" fill="#AEE5FE"/>
<path d="M63.9707 143.771H159.916" stroke="#2C8FE8" stroke-linecap="round" stroke-linejoin="round"/>
<path d="M169.035 143.771H184.663" stroke="#2C8FE8" stroke-linecap="round" stroke-linejoin="round"/>
<path d="M201.868 143.771H269.97" stroke="#2C8FE8" stroke-linecap="round" stroke-linejoin="round"/>
<path d="M63.9707 153.606H179.989" stroke="#2C8FE8" stroke-linecap="round" stroke-linejoin="round"/>
<path d="M191.458 151.828H238.628" stroke="#2C8FE8" stroke-linecap="round" stroke-linejoin="round"/>
<path d="M247.374 151.828H271.403" stroke="#2C8FE8" stroke-linecap="round" stroke-linejoin="round"/>
<path d="M68.9888 165.793H206.169" stroke="#2C8FE8" stroke-linecap="round" stroke-linejoin="round"/>
<path d="M222.284 165.793H259.389" stroke="#2C8FE8" stroke-linecap="round" stroke-linejoin="round"/>
<path d="M271.404 176.746H165.308" stroke="#2C8FE8" stroke-linecap="round" stroke-linejoin="round"/>
<path d="M210.814 191.6H63.9707" stroke="#2C8FE8" stroke-linecap="round" stroke-linejoin="round"/>
<path d="M165.308 200.919H273.899" stroke="#2C8FE8" stroke-linecap="round" stroke-linejoin="round"/>
<path d="M176.863 205.593H87.5126" stroke="#2C8FE8" stroke-linecap="round" stroke-linejoin="round"/>
<path d="M63.9707 176.746H102.94" stroke="#2C8FE8" stroke-linecap="round" stroke-linejoin="round"/>
<path d="M126.596 234.985H99.6993" stroke="#2C8FE8" stroke-linecap="round" stroke-linejoin="round"/>
<path d="M124.073 246.798H62.0784" stroke="#2C8FE8" stroke-linecap="round" stroke-linejoin="round"/>
<path d="M154.181 234.985H165.307" stroke="#2C8FE8" stroke-linecap="round" stroke-linejoin="round"/>
<path d="M174.426 234.985H185.552" stroke="#2C8FE8" stroke-linecap="round" stroke-linejoin="round"/>
<path d="M194.699 234.985H205.796" stroke="#2C8FE8" stroke-linecap="round" stroke-linejoin="round"/>
<path d="M214.943 234.985H226.041" stroke="#2C8FE8" stroke-linecap="round" stroke-linejoin="round"/>
<path d="M235.187 234.985H246.313" stroke="#2C8FE8" stroke-linecap="round" stroke-linejoin="round"/>
<path d="M255.432 234.985H266.558" stroke="#2C8FE8" stroke-linecap="round" stroke-linejoin="round"/>
<path d="M154.181 243.616H161.35" stroke="#2C8FE8" stroke-linecap="round" stroke-linejoin="round"/>
<path d="M170.842 243.616H178.01" stroke="#2C8FE8" stroke-linecap="round" stroke-linejoin="round"/>
<path d="M187.53 243.616H194.699" stroke="#2C8FE8" stroke-linecap="round" stroke-linejoin="round"/>
<path d="M204.191 243.616H211.359" stroke="#2C8FE8" stroke-linecap="round" stroke-linejoin="round"/>
<path d="M220.85 243.616H228.019" stroke="#2C8FE8" stroke-linecap="round" stroke-linejoin="round"/>
<path d="M237.51 243.616H244.679" stroke="#2C8FE8" stroke-linecap="round" stroke-linejoin="round"/>
<path d="M254.199 243.616H261.368" stroke="#2C8FE8" stroke-linecap="round" stroke-linejoin="round"/>
<path d="M70.8245 278.8L62.939 286.685L70.5378 294.284" stroke="#2C8FE8" stroke-linecap="round" stroke-linejoin="round"/>
<path d="M78.7384 278.8L70.8242 286.685L78.423 294.284" stroke="#2C8FE8" stroke-linecap="round" stroke-linejoin="round"/>
<path d="M318.832 142.05L310.946 149.936L318.517 157.534" stroke="#2C8FE8" stroke-linecap="round" stroke-linejoin="round"/>
<path d="M306.989 185.951H369.443" stroke="#2C8FE8" stroke-linecap="round" stroke-linejoin="round"/>
<path d="M306.989 193.578H331.535" stroke="#2C8FE8" stroke-linecap="round" stroke-linejoin="round"/>
<path d="M306.989 205.593H331.535" stroke="#2C8FE8" stroke-linecap="round" stroke-linejoin="round"/>
<path d="M306.989 217.579H331.535" stroke="#2C8FE8" stroke-linecap="round" stroke-linejoin="round"/>
<path d="M306.989 229.594H331.535" stroke="#2C8FE8" stroke-linecap="round" stroke-linejoin="round"/>
<path d="M404.369 200.919H387.738" stroke="#2C8FE8" stroke-linecap="round" stroke-linejoin="round"/>
<path d="M404.369 207.744H387.738" stroke="#2C8FE8" stroke-linecap="round" stroke-linejoin="round"/>
<path d="M404.369 214.568H387.738" stroke="#2C8FE8" stroke-linecap="round" stroke-linejoin="round"/>
<path d="M404.369 221.393H387.738" stroke="#2C8FE8" stroke-linecap="round" stroke-linejoin="round"/>
<path d="M404.369 228.246H387.738" stroke="#2C8FE8" stroke-linecap="round" stroke-linejoin="round"/>
<path d="M404.369 235.071H387.738" stroke="#2C8FE8" stroke-linecap="round" stroke-linejoin="round"/>
<path d="M404.369 241.895H387.738" stroke="#2C8FE8" stroke-linecap="round" stroke-linejoin="round"/>
<path d="M404.369 248.72H387.738" stroke="#2C8FE8" stroke-linecap="round" stroke-linejoin="round"/>
<path d="M98.2655 278.8H266.557" stroke="#2C8FE8" stroke-linecap="round" stroke-linejoin="round"/>
<path d="M98.2655 286.542H200.233" stroke="#2C8FE8" stroke-linecap="round" stroke-linejoin="round"/>
<path d="M98.2655 297.438H200.233" stroke="#2C8FE8" stroke-linecap="round" stroke-linejoin="round"/>
<path opacity="0.3" d="M172.734 365.742H375.092V534.349C375.092 537.181 374.534 539.985 373.45 542.601C372.367 545.217 370.778 547.594 368.776 549.597C366.774 551.599 364.397 553.187 361.78 554.271C359.164 555.355 356.36 555.912 353.528 555.912H194.298C191.466 555.912 188.662 555.355 186.046 554.271C183.43 553.187 181.052 551.599 179.05 549.597C177.048 547.594 175.459 545.217 174.376 542.601C173.292 539.985 172.734 537.181 172.734 534.349V365.742Z" fill="#AEE5FE"/>
<path opacity="0.3" d="M366.432 405.829H200.577V465.357H366.432V405.829Z" fill="#AEE5FE"/>
<path opacity="0.3" d="M258.902 476.455H200.577V494.921H258.902V476.455Z" fill="#AEE5FE"/>
<path opacity="0.3" d="M366.432 476.455H267.647V494.921H366.432V476.455Z" fill="#AEE5FE"/>
<path opacity="0.3" d="M375.092 365.885H172.734V396.968H375.092V365.885Z" fill="#AEE5FE"/>
<path opacity="0.3" d="M185.236 387.075C188.8 387.075 191.688 384.187 191.688 380.624C191.688 377.06 188.8 374.172 185.236 374.172C181.673 374.172 178.785 377.06 178.785 380.624C178.785 384.187 181.673 387.075 185.236 387.075Z" fill="#AEE5FE"/>
<path opacity="0.3" d="M215.775 387.075C219.338 387.075 222.227 384.187 222.227 380.624C222.227 377.06 219.338 374.172 215.775 374.172C212.212 374.172 209.323 377.06 209.323 380.624C209.323 384.187 212.212 387.075 215.775 387.075Z" fill="#AEE5FE"/>
<path opacity="0.66" d="M375.092 396.366H172.734V396.968H375.092V396.366Z" fill="#AEE5FE"/>
<path d="M185.236 385.728C188.055 385.728 190.34 383.442 190.34 380.623C190.34 377.805 188.055 375.519 185.236 375.519C182.417 375.519 180.132 377.805 180.132 380.623C180.132 383.442 182.417 385.728 185.236 385.728Z" fill="#AEE5FE"/>
<path d="M200.577 385.728C203.396 385.728 205.682 383.442 205.682 380.623C205.682 377.805 203.396 375.519 200.577 375.519C197.759 375.519 195.473 377.805 195.473 380.623C195.473 383.442 197.759 385.728 200.577 385.728Z" fill="#0D6CC4"/>
<path d="M215.775 385.728C218.594 385.728 220.879 383.442 220.879 380.623C220.879 377.805 218.594 375.519 215.775 375.519C212.956 375.519 210.671 377.805 210.671 380.623C210.671 383.442 212.956 385.728 215.775 385.728Z" fill="#0F3579"/>
<path opacity="0.3" d="M185.809 401.384H184.662C182.16 401.384 180.132 403.412 180.132 405.915V539.08C180.132 541.582 182.16 543.611 184.662 543.611H185.809C188.312 543.611 190.34 541.582 190.34 539.08V405.915C190.34 403.412 188.312 401.384 185.809 401.384Z" fill="#AEE5FE"/>
<path d="M185.093 405.829H184.635C183.637 405.829 182.828 406.637 182.828 407.635V441.328C182.828 442.326 183.637 443.135 184.635 443.135H185.093C186.091 443.135 186.9 442.326 186.9 441.328V407.635C186.9 406.637 186.091 405.829 185.093 405.829Z" fill="#AEE5FE"/>
<path d="M207.001 414.316H276.852" stroke="#2C8FE8" stroke-linecap="round" stroke-linejoin="round"/>
<path d="M283.505 414.316H294.86" stroke="#2C8FE8" stroke-linecap="round" stroke-linejoin="round"/>
<path d="M307.362 414.316H356.941" stroke="#2C8FE8" stroke-linecap="round" stroke-linejoin="round"/>
<path d="M207.001 421.485H291.448" stroke="#2C8FE8" stroke-linecap="round" stroke-linejoin="round"/>
<path d="M299.792 420.195H334.144" stroke="#2C8FE8" stroke-linecap="round" stroke-linejoin="round"/>
<path d="M340.51 420.195H357.973" stroke="#2C8FE8" stroke-linecap="round" stroke-linejoin="round"/>
<path d="M210.671 430.374H310.488" stroke="#2C8FE8" stroke-linecap="round" stroke-linejoin="round"/>
<path d="M322.244 430.374H349.227" stroke="#2C8FE8" stroke-linecap="round" stroke-linejoin="round"/>
<path d="M357.973 438.317H280.752" stroke="#2C8FE8" stroke-linecap="round" stroke-linejoin="round"/>
<path d="M313.9 449.156H207.001" stroke="#2C8FE8" stroke-linecap="round" stroke-linejoin="round"/>
<path d="M280.752 455.923H359.808" stroke="#2C8FE8" stroke-linecap="round" stroke-linejoin="round"/>
<path d="M289.182 459.307H224.148" stroke="#2C8FE8" stroke-linecap="round" stroke-linejoin="round"/>
<path d="M207.001 438.317H235.36" stroke="#2C8FE8" stroke-linecap="round" stroke-linejoin="round"/>
<path d="M252.593 480.698H233.037" stroke="#2C8FE8" stroke-linecap="round" stroke-linejoin="round"/>
<path d="M250.758 489.301H205.624" stroke="#2C8FE8" stroke-linecap="round" stroke-linejoin="round"/>
<path d="M272.666 480.698H280.752" stroke="#2C8FE8" stroke-linecap="round" stroke-linejoin="round"/>
<path d="M287.405 480.698H295.491" stroke="#2C8FE8" stroke-linecap="round" stroke-linejoin="round"/>
<path d="M302.143 480.698H310.229" stroke="#2C8FE8" stroke-linecap="round" stroke-linejoin="round"/>
<path d="M316.882 480.698H324.969" stroke="#2C8FE8" stroke-linecap="round" stroke-linejoin="round"/>
<path d="M331.621 480.698H339.707" stroke="#2C8FE8" stroke-linecap="round" stroke-linejoin="round"/>
<path d="M346.359 480.698H354.446" stroke="#2C8FE8" stroke-linecap="round" stroke-linejoin="round"/>
<path d="M272.666 486.978H277.884" stroke="#2C8FE8" stroke-linecap="round" stroke-linejoin="round"/>
<path d="M284.795 486.978H290.014" stroke="#2C8FE8" stroke-linecap="round" stroke-linejoin="round"/>
<path d="M296.924 486.978H302.143" stroke="#2C8FE8" stroke-linecap="round" stroke-linejoin="round"/>
<path d="M309.053 486.978H314.272" stroke="#2C8FE8" stroke-linecap="round" stroke-linejoin="round"/>
<path d="M321.184 486.978H326.402" stroke="#2C8FE8" stroke-linecap="round" stroke-linejoin="round"/>
<path d="M333.313 486.978H338.532" stroke="#2C8FE8" stroke-linecap="round" stroke-linejoin="round"/>
<path d="M345.442 486.978H350.661" stroke="#2C8FE8" stroke-linecap="round" stroke-linejoin="round"/>
<path d="M212.018 512.585L206.283 518.348L211.789 523.854" stroke="#2C8FE8" stroke-linecap="round" stroke-linejoin="round"/>
<path d="M217.754 512.585L212.019 518.348L217.524 523.854" stroke="#2C8FE8" stroke-linecap="round" stroke-linejoin="round"/>
<path d="M231.976 512.585H354.446" stroke="#2C8FE8" stroke-linecap="round" stroke-linejoin="round"/>
<path d="M231.976 518.234H306.187" stroke="#2C8FE8" stroke-linecap="round" stroke-linejoin="round"/>
<path d="M231.976 526.148H306.187" stroke="#2C8FE8" stroke-linecap="round" stroke-linejoin="round"/>
<path opacity="0.3" d="M742.329 468.971H903.681V529.36C903.681 535.078 901.409 540.563 897.366 544.607C893.322 548.651 887.837 550.923 882.118 550.923H763.863C758.144 550.923 752.66 548.651 748.616 544.607C744.572 540.563 742.3 535.078 742.3 529.36V468.971H742.329Z" fill="#AEE5FE"/>
<path opacity="0.3" d="M852.727 493H758.96V528.614H852.727V493Z" fill="#AEE5FE"/>
<path opacity="0.3" d="M903.681 469.114H742.329V487.695H903.681V469.114Z" fill="#AEE5FE"/>
<path opacity="0.3" d="M749.813 481.788C751.935 481.788 753.655 480.068 753.655 477.946C753.655 475.823 751.935 474.103 749.813 474.103C747.691 474.103 745.97 475.823 745.97 477.946C745.97 480.068 747.691 481.788 749.813 481.788Z" fill="#AEE5FE"/>
<path opacity="0.3" d="M758.96 481.788C761.082 481.788 762.802 480.068 762.802 477.946C762.802 475.823 761.082 474.103 758.96 474.103C756.838 474.103 755.117 475.823 755.117 477.946C755.117 480.068 756.838 481.788 758.96 481.788Z" fill="#AEE5FE"/>
<path opacity="0.3" d="M768.05 481.788C770.172 481.788 771.893 480.068 771.893 477.946C771.893 475.823 770.172 474.103 768.05 474.103C765.928 474.103 764.208 475.823 764.208 477.946C764.208 480.068 765.928 481.788 768.05 481.788Z" fill="#AEE5FE"/>
<path opacity="0.66" d="M903.681 487.322H742.329V487.666H903.681V487.322Z" fill="#AEE5FE"/>
<path d="M749.813 481.014C751.508 481.014 752.881 479.64 752.881 477.946C752.881 476.251 751.508 474.877 749.813 474.877C748.119 474.877 746.745 476.251 746.745 477.946C746.745 479.64 748.119 481.014 749.813 481.014Z" fill="#AEE5FE"/>
<path d="M758.96 481.014C760.654 481.014 762.028 479.64 762.028 477.946C762.028 476.251 760.654 474.877 758.96 474.877C757.265 474.877 755.892 476.251 755.892 477.946C755.892 479.64 757.265 481.014 758.96 481.014Z" fill="#0D6CC4"/>
<path d="M768.05 481.014C769.744 481.014 771.118 479.64 771.118 477.946C771.118 476.251 769.744 474.877 768.05 474.877C766.355 474.877 764.981 476.251 764.981 477.946C764.981 479.64 766.355 481.014 768.05 481.014Z" fill="#0F3579"/>
<path opacity="0.3" d="M752.853 493.43C752.853 491.736 751.485 490.362 749.799 490.362C748.112 490.362 746.745 491.736 746.745 493.43V540.657C746.745 542.352 748.112 543.726 749.799 543.726C751.485 543.726 752.853 542.352 752.853 540.657V493.43Z" fill="#AEE5FE"/>
<path d="M750.817 494.233C750.817 493.552 750.271 493 749.598 493C748.925 493 748.379 493.552 748.379 494.233V514.076C748.379 514.757 748.925 515.309 749.598 515.309C750.271 515.309 750.817 514.757 750.817 514.076V494.233Z" fill="#AEE5FE"/>
<path d="M791.994 496.814H762.402C762.27 496.806 762.146 496.749 762.055 496.653C761.964 496.557 761.914 496.43 761.914 496.298C761.921 496.171 761.975 496.051 762.064 495.961C762.154 495.871 762.275 495.817 762.402 495.81H791.936C792.064 495.817 792.184 495.871 792.274 495.961C792.364 496.051 792.417 496.171 792.424 496.298C792.426 496.421 792.383 496.541 792.304 496.635C792.225 496.73 792.115 496.793 791.994 496.814V496.814Z" fill="#2C8FE8"/>
<path d="M798.273 496.814H794.316C794.179 496.814 794.048 496.759 793.951 496.663C793.854 496.566 793.8 496.434 793.8 496.298C793.807 496.166 793.865 496.042 793.961 495.951C794.057 495.86 794.184 495.81 794.316 495.81H798.273C798.337 495.81 798.4 495.823 798.46 495.847C798.519 495.872 798.572 495.908 798.618 495.953C798.663 495.998 798.699 496.052 798.723 496.111C798.748 496.17 798.76 496.234 798.76 496.298C798.764 496.364 798.755 496.43 798.732 496.493C798.709 496.555 798.674 496.613 798.628 496.661C798.583 496.709 798.528 496.748 798.466 496.774C798.405 496.8 798.34 496.814 798.273 496.814Z" fill="#2C8FE8"/>
<path d="M838.447 496.814H802.546C802.409 496.814 802.278 496.759 802.181 496.663C802.084 496.566 802.03 496.434 802.03 496.298C802.037 496.166 802.095 496.042 802.191 495.951C802.287 495.86 802.414 495.81 802.546 495.81H838.332C838.459 495.817 838.579 495.871 838.669 495.961C838.759 496.051 838.813 496.171 838.819 496.298C838.824 496.413 838.79 496.526 838.722 496.62C838.655 496.714 838.558 496.782 838.447 496.814V496.814Z" fill="#2C8FE8"/>
<path d="M797.098 499.308H762.402C762.275 499.301 762.154 499.248 762.064 499.158C761.975 499.068 761.921 498.948 761.914 498.821C761.914 498.689 761.964 498.562 762.055 498.466C762.146 498.37 762.27 498.312 762.402 498.305H797.098C797.23 498.312 797.354 498.37 797.445 498.466C797.535 498.562 797.586 498.689 797.585 498.821C797.579 498.948 797.525 499.068 797.435 499.158C797.345 499.248 797.225 499.301 797.098 499.308V499.308Z" fill="#2C8FE8"/>
<path d="M830.475 498.849H799.994C799.864 498.849 799.74 498.798 799.649 498.707C799.557 498.615 799.506 498.491 799.506 498.362C799.506 498.23 799.556 498.103 799.647 498.007C799.738 497.911 799.862 497.853 799.994 497.846H830.475C830.541 497.846 830.607 497.859 830.668 497.885C830.729 497.912 830.784 497.95 830.83 497.999C830.876 498.047 830.911 498.104 830.934 498.167C830.956 498.229 830.966 498.296 830.962 498.362C830.966 498.427 830.957 498.492 830.934 498.553C830.911 498.614 830.875 498.67 830.829 498.716C830.783 498.762 830.727 498.798 830.666 498.821C830.605 498.844 830.54 498.854 830.475 498.849V498.849Z" fill="#2C8FE8"/>
<path d="M838.82 498.849H832.712C832.646 498.853 832.579 498.844 832.517 498.821C832.454 498.798 832.397 498.763 832.349 498.717C832.3 498.672 832.262 498.616 832.235 498.555C832.209 498.494 832.196 498.428 832.196 498.362C832.196 498.225 832.25 498.094 832.347 497.997C832.444 497.9 832.575 497.846 832.712 497.846H838.82C838.952 497.853 839.076 497.911 839.166 498.007C839.257 498.103 839.307 498.23 839.307 498.362C839.307 498.491 839.256 498.615 839.164 498.707C839.073 498.798 838.949 498.849 838.82 498.849Z" fill="#2C8FE8"/>
<path d="M803.75 502.405H763.749C763.682 502.409 763.616 502.399 763.553 502.377C763.491 502.354 763.434 502.319 763.385 502.273C763.337 502.227 763.299 502.172 763.272 502.111C763.246 502.05 763.233 501.984 763.233 501.918C763.233 501.781 763.287 501.649 763.384 501.553C763.481 501.456 763.612 501.401 763.749 501.401H803.75C803.882 501.409 804.006 501.466 804.097 501.562C804.187 501.658 804.238 501.786 804.237 501.918C804.237 502.047 804.186 502.171 804.095 502.262C804.003 502.354 803.879 502.405 803.75 502.405V502.405Z" fill="#2C8FE8"/>
<path d="M835.751 502.405H826.317C826.251 502.409 826.184 502.399 826.122 502.377C826.059 502.354 826.002 502.319 825.954 502.273C825.905 502.227 825.867 502.172 825.841 502.111C825.814 502.05 825.801 501.984 825.801 501.918C825.801 501.85 825.814 501.783 825.84 501.72C825.866 501.657 825.904 501.601 825.952 501.553C826 501.505 826.057 501.467 826.12 501.441C826.182 501.415 826.249 501.401 826.317 501.401H835.751C835.888 501.401 836.019 501.456 836.116 501.553C836.213 501.649 836.267 501.781 836.267 501.918C836.267 501.984 836.254 502.05 836.228 502.111C836.201 502.172 836.163 502.227 836.115 502.273C836.066 502.319 836.009 502.354 835.947 502.377C835.884 502.399 835.818 502.409 835.751 502.405V502.405Z" fill="#2C8FE8"/>
<path d="M838.819 505.186H793.341C793.211 505.186 793.088 505.135 792.996 505.044C792.905 504.952 792.853 504.828 792.853 504.699C792.853 504.57 792.905 504.446 792.996 504.354C793.088 504.263 793.211 504.212 793.341 504.212H838.819C838.948 504.212 839.072 504.263 839.164 504.354C839.255 504.446 839.306 504.57 839.306 504.699C839.306 504.828 839.255 504.952 839.164 505.044C839.072 505.135 838.948 505.186 838.819 505.186V505.186Z" fill="#2C8FE8"/>
<path d="M804.926 509.115H762.402C762.275 509.108 762.154 509.054 762.064 508.965C761.975 508.875 761.921 508.755 761.914 508.627C761.914 508.495 761.964 508.368 762.055 508.272C762.146 508.176 762.27 508.119 762.402 508.111H804.869C805.006 508.111 805.137 508.166 805.234 508.263C805.331 508.359 805.385 508.491 805.385 508.627C805.379 508.75 805.329 508.866 805.245 508.956C805.161 509.045 805.048 509.101 804.926 509.115V509.115Z" fill="#2C8FE8"/>
<path d="M839.45 511.352H793.341C793.209 511.344 793.085 511.287 792.994 511.191C792.903 511.095 792.853 510.968 792.853 510.836C792.86 510.709 792.914 510.588 793.004 510.498C793.094 510.409 793.214 510.355 793.341 510.348H839.45C839.577 510.355 839.697 510.409 839.787 510.498C839.877 510.588 839.93 510.709 839.937 510.836C839.937 510.968 839.887 511.095 839.796 511.191C839.706 511.287 839.582 511.344 839.45 511.352V511.352Z" fill="#2C8FE8"/>
<path d="M781.154 512.527H768.452C768.386 512.532 768.321 512.522 768.26 512.499C768.199 512.476 768.144 512.44 768.098 512.394C768.051 512.348 768.016 512.292 767.993 512.231C767.97 512.17 767.96 512.105 767.964 512.04C767.96 511.973 767.97 511.907 767.993 511.844C768.015 511.782 768.051 511.725 768.096 511.676C768.142 511.628 768.197 511.59 768.258 511.563C768.319 511.537 768.385 511.524 768.452 511.524H781.154C781.286 511.531 781.41 511.589 781.501 511.685C781.592 511.781 781.642 511.908 781.642 512.04C781.642 512.169 781.591 512.293 781.499 512.385C781.408 512.476 781.284 512.527 781.154 512.527Z" fill="#2C8FE8"/>
<path d="M772.38 505.186H762.402C762.272 505.186 762.148 505.135 762.057 505.044C761.965 504.952 761.914 504.828 761.914 504.699C761.914 504.57 761.965 504.446 762.057 504.354C762.148 504.263 762.272 504.212 762.402 504.212H772.323C772.452 504.212 772.576 504.263 772.668 504.354C772.759 504.446 772.811 504.57 772.811 504.699C772.811 504.828 772.759 504.952 772.668 505.044C772.576 505.135 772.452 505.186 772.323 505.186H772.38Z" fill="#2C8FE8"/>
<path opacity="0.3" d="M676.693 8.82709H964.386V404.796C964.386 410.515 962.114 416 958.071 420.044C954.027 424.088 948.542 426.36 942.823 426.36H698.256C695.425 426.36 692.621 425.802 690.004 424.718C687.388 423.635 685.011 422.046 683.009 420.044C681.006 418.042 679.418 415.664 678.334 413.048C677.251 410.432 676.693 407.628 676.693 404.796V8.82709V8.82709Z" fill="#AEE5FE"/>
<path opacity="0.3" d="M942.822 63.7106H714.944V263.086H942.822V63.7106Z" fill="#AEE5FE"/>
<path opacity="0.3" d="M795.062 317.166H714.944V342.544H795.062V317.166Z" fill="#AEE5FE"/>
<path opacity="0.3" d="M942.823 317.166H807.105V342.544H942.823V317.166Z" fill="#AEE5FE"/>
<path opacity="0.3" d="M942.822 357.799H714.944V393.212H942.822V357.799Z" fill="#AEE5FE"/>
<path opacity="0.3" d="M964.386 8.82709H676.693V51.5237H964.386V8.82709Z" fill="#AEE5FE"/>
<path opacity="0.3" d="M693.897 37.961C698.791 37.961 702.758 33.994 702.758 29.1005C702.758 24.207 698.791 20.24 693.897 20.24C689.004 20.24 685.037 24.207 685.037 29.1005C685.037 33.994 689.004 37.961 693.897 37.961Z" fill="#AEE5FE"/>
<path d="M693.897 37.9609C691.552 37.9762 689.297 37.0612 687.625 35.4165C685.954 33.7718 685.002 31.5314 684.979 29.1865C684.979 31.5364 685.913 33.7901 687.575 35.4518C689.236 37.1134 691.49 38.047 693.84 38.047C696.19 38.047 698.444 37.1134 700.105 35.4518C701.767 33.7901 702.7 31.5364 702.7 29.1865C702.685 31.5139 701.752 33.7413 700.104 35.3844C698.455 37.0275 696.225 37.9534 693.897 37.9609V37.9609Z" fill="#AEE5FE"/>
<path opacity="0.3" d="M714.945 37.961C719.838 37.961 723.805 33.994 723.805 29.1005C723.805 24.207 719.838 20.24 714.945 20.24C710.051 20.24 706.084 24.207 706.084 29.1005C706.084 33.994 710.051 37.961 714.945 37.961Z" fill="#AEE5FE"/>
<path d="M714.945 37.9609C712.614 37.9535 710.381 37.0285 708.728 35.3862C707.075 33.7439 706.135 31.5165 706.113 29.1865V29.1865C706.044 30.3905 706.222 31.5959 706.636 32.7288C707.049 33.8617 707.69 34.8982 708.518 35.7749C709.346 36.6516 710.345 37.35 711.452 37.8273C712.56 38.3046 713.753 38.5508 714.959 38.5508C716.165 38.5508 717.358 38.3046 718.466 37.8273C719.573 37.35 720.572 36.6516 721.4 35.7749C722.228 34.8982 722.869 33.8617 723.282 32.7288C723.696 31.5959 723.874 30.3905 723.805 29.1865V29.1865C723.782 31.5215 722.839 33.7531 721.18 35.3962C719.52 37.0393 717.28 37.961 714.945 37.9609Z" fill="#AEE5FE"/>
<path opacity="0.3" d="M735.848 37.961C740.742 37.961 744.709 33.994 744.709 29.1005C744.709 24.207 740.742 20.24 735.848 20.24C730.955 20.24 726.988 24.207 726.988 29.1005C726.988 33.994 730.955 37.961 735.848 37.961Z" fill="#AEE5FE"/>
<path d="M735.848 37.9609C733.515 37.961 731.278 37.0384 729.623 35.3945C727.968 33.7506 727.031 31.5189 727.016 29.1865C727.016 31.5364 727.95 33.7901 729.611 35.4518C731.273 37.1134 733.527 38.047 735.877 38.047C738.227 38.047 740.48 37.1134 742.142 35.4518C743.804 33.7901 744.737 31.5364 744.737 29.1865C744.73 30.3463 744.494 31.4933 744.043 32.5619C743.592 33.6306 742.935 34.6 742.11 35.4148C741.284 36.2295 740.307 36.8738 739.232 37.3106C738.158 37.7475 737.008 37.9685 735.848 37.9609V37.9609Z" fill="#AEE5FE"/>
<path opacity="0.66" d="M964.386 50.6924H676.693V51.524H964.386V50.6924Z" fill="#AEE5FE"/>
<path d="M693.897 36.1255C697.777 36.1255 700.922 32.9802 700.922 29.1002C700.922 25.2203 697.777 22.0749 693.897 22.0749C690.017 22.0749 686.872 25.2203 686.872 29.1002C686.872 32.9802 690.017 36.1255 693.897 36.1255Z" fill="#AEE5FE"/>
<path d="M714.944 36.1255C718.824 36.1255 721.97 32.9802 721.97 29.1002C721.97 25.2203 718.824 22.0749 714.944 22.0749C711.065 22.0749 707.919 25.2203 707.919 29.1002C707.919 32.9802 711.065 36.1255 714.944 36.1255Z" fill="#0D6CC4"/>
<path d="M735.848 36.1255C739.728 36.1255 742.873 32.9802 742.873 29.1002C742.873 25.2203 739.728 22.0749 735.848 22.0749C731.968 22.0749 728.823 25.2203 728.823 29.1002C728.823 32.9802 731.968 36.1255 735.848 36.1255Z" fill="#0F3579"/>
<path opacity="0.3" d="M700.922 64.6568C700.922 60.7769 697.777 57.6315 693.897 57.6315C690.017 57.6315 686.872 60.7769 686.872 64.6568V402.445C686.872 406.325 690.017 409.47 693.897 409.47C697.777 409.47 700.922 406.325 700.922 402.445V64.6568Z" fill="#AEE5FE"/>
<path d="M696.22 66.5207C696.22 64.9687 694.962 63.7106 693.41 63.7106C691.858 63.7106 690.6 64.9687 690.6 66.5207V112.171C690.6 113.723 691.858 114.981 693.41 114.981C694.962 114.981 696.22 113.723 696.22 112.171V66.5207Z" fill="#AEE5FE"/>
<path d="M723.805 75.3813H819.78" stroke="#2C8FE8" stroke-linecap="round" stroke-linejoin="round"/>
<path d="M828.898 75.3813H844.497" stroke="#2C8FE8" stroke-linecap="round" stroke-linejoin="round"/>
<path d="M861.702 75.3813H929.805" stroke="#2C8FE8" stroke-linecap="round" stroke-linejoin="round"/>
<path d="M723.805 85.2167H839.852" stroke="#2C8FE8" stroke-linecap="round" stroke-linejoin="round"/>
<path d="M851.321 83.4388H898.463" stroke="#2C8FE8" stroke-linecap="round" stroke-linejoin="round"/>
<path d="M907.237 83.4388H931.238" stroke="#2C8FE8" stroke-linecap="round" stroke-linejoin="round"/>
<path d="M728.823 97.4034H866.003" stroke="#2C8FE8" stroke-linecap="round" stroke-linejoin="round"/>
<path d="M882.146 97.4034H919.223" stroke="#2C8FE8" stroke-linecap="round" stroke-linejoin="round"/>
<path d="M931.238 108.357H825.142" stroke="#2C8FE8" stroke-linecap="round" stroke-linejoin="round"/>
<path d="M870.677 123.211H723.805" stroke="#2C8FE8" stroke-linecap="round" stroke-linejoin="round"/>
<path d="M825.142 132.53H933.761" stroke="#2C8FE8" stroke-linecap="round" stroke-linejoin="round"/>
<path d="M816.453 160.086H727.131" stroke="#2C8FE8" stroke-linecap="round" stroke-linejoin="round"/>
<path d="M723.805 108.357H762.774" stroke="#2C8FE8" stroke-linecap="round" stroke-linejoin="round"/>
<path d="M786.43 323.016H759.562" stroke="#2C8FE8" stroke-linecap="round" stroke-linejoin="round"/>
<path d="M783.936 334.859H721.913" stroke="#2C8FE8" stroke-linecap="round" stroke-linejoin="round"/>
<path d="M814.044 323.016H825.141" stroke="#2C8FE8" stroke-linecap="round" stroke-linejoin="round"/>
<path d="M834.289 323.016H845.386" stroke="#2C8FE8" stroke-linecap="round" stroke-linejoin="round"/>
<path d="M854.533 323.016H865.659" stroke="#2C8FE8" stroke-linecap="round" stroke-linejoin="round"/>
<path d="M874.777 323.016H885.903" stroke="#2C8FE8" stroke-linecap="round" stroke-linejoin="round"/>
<path d="M895.05 323.016H906.147" stroke="#2C8FE8" stroke-linecap="round" stroke-linejoin="round"/>
<path d="M915.295 323.016H926.392" stroke="#2C8FE8" stroke-linecap="round" stroke-linejoin="round"/>
<path d="M814.044 331.676H821.213" stroke="#2C8FE8" stroke-linecap="round" stroke-linejoin="round"/>
<path d="M830.705 331.676H837.873" stroke="#2C8FE8" stroke-linecap="round" stroke-linejoin="round"/>
<path d="M847.365 331.676H854.533" stroke="#2C8FE8" stroke-linecap="round" stroke-linejoin="round"/>
<path d="M864.024 331.676H871.193" stroke="#2C8FE8" stroke-linecap="round" stroke-linejoin="round"/>
<path d="M880.713 331.676H887.882" stroke="#2C8FE8" stroke-linecap="round" stroke-linejoin="round"/>
<path d="M897.373 331.676H904.542" stroke="#2C8FE8" stroke-linecap="round" stroke-linejoin="round"/>
<path d="M914.033 331.676H921.202" stroke="#2C8FE8" stroke-linecap="round" stroke-linejoin="round"/>
<path d="M730.687 366.831L722.801 374.746L730.371 382.316" stroke="#2C8FE8" stroke-linecap="round" stroke-linejoin="round"/>
<path d="M738.572 366.831L730.687 374.746L738.257 382.316" stroke="#2C8FE8" stroke-linecap="round" stroke-linejoin="round"/>
<path d="M804.181 178.151L786.431 195.901L803.492 212.963" stroke="#2C8FE8" stroke-linecap="round" stroke-linejoin="round"/>
<path d="M821.93 178.151L804.18 195.901L821.242 212.963" stroke="#2C8FE8" stroke-linecap="round" stroke-linejoin="round"/>
<path d="M758.129 366.831H926.392" stroke="#2C8FE8" stroke-linecap="round" stroke-linejoin="round"/>
<path d="M758.129 374.573H860.096" stroke="#2C8FE8" stroke-linecap="round" stroke-linejoin="round"/>
<path d="M758.129 385.47H860.096" stroke="#2C8FE8" stroke-linecap="round" stroke-linejoin="round"/>
<path d="M869.415 221.794C888.815 221.794 904.542 206.068 904.542 186.668C904.542 167.268 888.815 151.541 869.415 151.541C850.016 151.541 834.289 167.268 834.289 186.668C834.289 206.068 850.016 221.794 869.415 221.794Z" stroke="#2C8FE8" stroke-linecap="round" stroke-linejoin="round"/>
<path d="M855.336 195.557C855.25 197.458 855.55 199.356 856.218 201.137C856.886 202.918 857.908 204.546 859.223 205.921C860.537 207.296 862.117 208.391 863.866 209.138C865.615 209.886 867.498 210.272 869.401 210.272C871.303 210.272 873.186 209.886 874.935 209.138C876.684 208.391 878.264 207.296 879.578 205.921C880.893 204.546 881.915 202.918 882.583 201.137C883.251 199.356 883.551 197.458 883.466 195.557H855.336Z" stroke="#2C8FE8" stroke-linecap="round" stroke-linejoin="round"/>
<path d="M848.425 180.933C848.425 179.123 849.144 177.387 850.424 176.107C851.704 174.827 853.44 174.108 855.25 174.108C857.06 174.108 858.796 174.827 860.076 176.107C861.355 177.387 862.074 179.123 862.074 180.933" stroke="#2C8FE8" stroke-linecap="round" stroke-linejoin="round"/>
<path d="M876.641 180.933C876.641 179.123 877.36 177.387 878.64 176.107C879.92 174.827 881.656 174.108 883.466 174.108C885.276 174.108 887.012 174.827 888.291 176.107C889.571 177.387 890.29 179.123 890.29 180.933" stroke="#2C8FE8" stroke-linecap="round" stroke-linejoin="round"/>
<path d="M899.036 220.648H927.997" stroke="#2C8FE8" stroke-linecap="round" stroke-linejoin="round"/>
<path d="M964.386 491.48C960.943 491.48 957.578 490.459 954.716 488.547C951.853 486.634 949.622 483.916 948.305 480.735C946.988 477.555 946.643 474.055 947.314 470.679C947.986 467.303 949.644 464.201 952.078 461.767C954.512 459.333 957.614 457.675 960.99 457.003C964.366 456.332 967.866 456.677 971.046 457.994C974.227 459.311 976.945 461.542 978.858 464.405C980.77 467.267 981.791 470.632 981.791 474.075C981.791 478.691 979.957 483.118 976.693 486.382C973.429 489.646 969.002 491.48 964.386 491.48V491.48ZM964.386 459.938C961.55 459.938 958.778 460.779 956.42 462.354C954.062 463.93 952.225 466.169 951.139 468.789C950.054 471.408 949.77 474.291 950.324 477.072C950.877 479.854 952.242 482.408 954.248 484.413C956.253 486.418 958.807 487.784 961.588 488.337C964.37 488.89 967.252 488.606 969.872 487.521C972.492 486.436 974.731 484.598 976.307 482.241C977.882 479.883 978.723 477.111 978.723 474.275C978.742 472.38 978.385 470.501 977.673 468.745C976.961 466.988 975.908 465.391 974.575 464.044C973.241 462.698 971.654 461.629 969.906 460.899C968.157 460.17 966.28 459.794 964.386 459.795V459.938Z" fill="#224DC2"/>
<path d="M111.944 414.976C108.501 414.976 105.136 413.955 102.274 412.042C99.4116 410.13 97.1806 407.411 95.8633 404.231C94.5459 401.051 94.2012 397.551 94.8728 394.175C95.5444 390.798 97.2021 387.697 99.6363 385.263C102.071 382.828 105.172 381.171 108.548 380.499C111.925 379.827 115.424 380.172 118.605 381.49C121.785 382.807 124.504 385.038 126.416 387.9C128.329 390.762 129.349 394.128 129.349 397.57C129.349 402.186 127.516 406.614 124.251 409.878C120.987 413.142 116.56 414.976 111.944 414.976V414.976ZM111.944 383.434C109.108 383.434 106.336 384.274 103.978 385.85C101.621 387.425 99.7831 389.664 98.6979 392.284C97.6127 394.904 97.3288 397.787 97.882 400.568C98.4352 403.349 99.8007 405.904 101.806 407.909C103.811 409.914 106.366 411.28 109.147 411.833C111.928 412.386 114.811 412.102 117.431 411.017C120.05 409.932 122.29 408.094 123.865 405.736C125.44 403.379 126.281 400.607 126.281 397.771C126.3 395.876 125.943 393.996 125.231 392.24C124.519 390.484 123.466 388.887 122.133 387.54C120.8 386.193 119.213 385.125 117.464 384.395C115.715 383.666 113.839 383.29 111.944 383.29V383.434Z" fill="#224DC2"/>
<path d="M461.618 37.4282L457.563 41.4835L493.897 77.8182L497.953 73.763L461.618 37.4282Z" fill="#224DC2"/>
<path d="M493.889 37.4197L457.555 73.7545L461.61 77.8097L497.945 41.475L493.889 37.4197Z" fill="#224DC2"/>
<path d="M258.873 801.597L218.04 760.793L258.873 719.96L299.734 760.793L258.873 801.597ZM226.184 760.793L258.873 793.539L291.619 760.793L258.873 728.075L226.184 760.793Z" fill="#224DC2"/>
<path d="M121.98 545.561L81.1182 504.699L121.98 463.838L162.812 504.699L121.98 545.561ZM89.2331 504.699L121.98 537.446L154.726 504.699L121.98 471.838L89.2331 504.699Z" fill="#224DC2"/>
<path d="M958.249 577.476L937.833 557.059L958.249 536.643L978.665 557.059L958.249 577.476ZM941.876 557.059L958.249 573.433L974.622 557.059L958.249 540.657L941.876 557.059Z" fill="#224DC2"/>
<path d="M1042.15 375.061L1018.12 351.031L1042.15 327.002L1044.65 329.525L1023.14 351.031L1044.65 372.537L1042.15 375.061Z" fill="#224DC2"/>
<path d="M1060.62 375.061L1036.62 351.031L1060.62 327.002L1063.14 329.525L1041.64 351.031L1063.14 372.537L1060.62 375.061Z" fill="#224DC2"/>
<path d="M617.422 191.514L593.392 167.485L617.422 143.455L619.916 145.979L598.41 167.485L619.916 188.991L617.422 191.514Z" fill="#224DC2"/>
<path d="M635.917 191.514L611.887 167.485L635.917 143.455L638.412 145.979L616.906 167.485L638.412 188.991L635.917 191.514Z" fill="#224DC2"/>
<path d="M514.623 170.209H497.906C497.328 170.212 496.756 170.101 496.222 169.882C495.688 169.663 495.203 169.34 494.795 168.932C494.387 168.524 494.064 168.039 493.845 167.505C493.625 166.971 493.515 166.398 493.518 165.821V155.986H489.504C488.702 155.989 487.917 155.754 487.249 155.31C486.581 154.866 486.06 154.233 485.752 153.492C485.445 152.751 485.365 151.936 485.522 151.149C485.68 150.363 486.068 149.641 486.636 149.075L503.382 132.301C504.145 131.544 505.176 131.12 506.25 131.12C507.324 131.12 508.355 131.544 509.117 132.301L525.892 149.075C526.461 149.641 526.849 150.363 527.006 151.149C527.164 151.936 527.084 152.751 526.776 153.492C526.469 154.233 525.948 154.866 525.28 155.31C524.612 155.754 523.827 155.989 523.025 155.986H519.01V165.821C519.01 166.985 518.548 168.101 517.725 168.924C516.902 169.746 515.787 170.209 514.623 170.209V170.209ZM506.25 133.964C505.935 133.977 505.638 134.111 505.418 134.336L488.644 151.082C488.48 151.249 488.369 151.46 488.323 151.689C488.277 151.918 488.299 152.156 488.386 152.373C488.477 152.594 488.632 152.783 488.831 152.916C489.03 153.049 489.265 153.119 489.504 153.118H496.386V165.821C496.386 166.224 496.546 166.611 496.831 166.896C497.116 167.181 497.503 167.341 497.906 167.341H514.623C515.026 167.341 515.413 167.181 515.698 166.896C515.983 166.611 516.143 166.224 516.143 165.821V153.118H523.025C523.262 153.126 523.495 153.058 523.691 152.924C523.887 152.79 524.035 152.597 524.114 152.373C524.209 152.157 524.235 151.918 524.189 151.687C524.143 151.456 524.026 151.245 523.856 151.082L507.196 134.336C507.074 134.211 506.926 134.112 506.763 134.048C506.6 133.984 506.425 133.955 506.25 133.964V133.964Z" fill="#224DC2"/>
<path d="M1026.5 261.366H1009.75C1008.59 261.358 1007.48 260.893 1006.66 260.072C1005.83 259.251 1005.37 258.14 1005.36 256.978V247.143H1001.35C1000.55 247.146 999.76 246.911 999.092 246.467C998.424 246.023 997.904 245.39 997.596 244.649C997.289 243.908 997.209 243.093 997.366 242.306C997.523 241.52 997.911 240.798 998.48 240.232L1015.25 223.458C1016.02 222.701 1017.05 222.277 1018.12 222.277C1019.2 222.277 1020.23 222.701 1020.99 223.458L1037.76 240.232C1038.33 240.798 1038.72 241.52 1038.88 242.306C1039.04 243.093 1038.96 243.908 1038.65 244.649C1038.34 245.39 1037.82 246.023 1037.15 246.467C1036.48 246.911 1035.7 247.146 1034.9 247.143H1030.88V256.978C1030.88 258.14 1030.41 259.251 1029.59 260.072C1028.77 260.893 1027.66 261.358 1026.5 261.366V261.366ZM1018.12 225.235C1017.97 225.234 1017.81 225.263 1017.67 225.323C1017.53 225.382 1017.4 225.469 1017.29 225.58L1000.4 242.24C1000.23 242.402 1000.12 242.613 1000.07 242.844C1000.02 243.075 1000.05 243.314 1000.14 243.53C1000.23 243.749 1000.38 243.937 1000.57 244.07C1000.77 244.203 1001 244.275 1001.23 244.275H1008.11V256.978C1008.11 257.381 1008.28 257.768 1008.56 258.053C1008.85 258.338 1009.23 258.498 1009.63 258.498H1026.38C1026.78 258.498 1027.17 258.338 1027.46 258.053C1027.74 257.768 1027.9 257.381 1027.9 256.978V244.275H1034.81C1035.05 244.275 1035.28 244.203 1035.47 244.07C1035.66 243.937 1035.81 243.749 1035.9 243.53C1036 243.314 1036.02 243.075 1035.98 242.844C1035.93 242.613 1035.81 242.402 1035.64 242.24L1018.87 225.465C1018.65 225.304 1018.39 225.222 1018.12 225.235Z" fill="#224DC2"/>
</svg>
